<mxfile host="app.diagrams.net" modified="2023-03-28T09:14:24.689Z" agent="Mozilla/5.0 (Windows NT 10.0; Win64; x64) AppleWebKit/537.36 (KHTML, like Gecko) Chrome/111.0.0.0 Safari/537.36 Edg/111.0.1661.54" etag="QiW8QXPmOvbm_3XBFarQ" version="21.1.1" type="github">
  <diagram name="第 1 页" id="FHftKpjNM8iqiLnRL3kn">
    <mxGraphModel dx="1297" dy="576" grid="1" gridSize="10" guides="0" tooltips="1" connect="0" arrows="0" fold="1" page="0" pageScale="1" pageWidth="1169" pageHeight="827" math="1" shadow="0">
      <root>
        <mxCell id="0" />
        <mxCell id="1" parent="0" />
        <mxCell id="Wwvcnq5fY5of7Q76l7Qe-1" value="" style="childLayout=tableLayout;recursiveResize=0;shadow=0;fillColor=#D5E8D4;direction=north;strokeColor=#36393d;" vertex="1" parent="1">
          <mxGeometry x="350" y="240" width="40" height="160" as="geometry" />
        </mxCell>
        <mxCell id="Wwvcnq5fY5of7Q76l7Qe-2" value="" style="shape=tableRow;horizontal=0;startSize=0;swimlaneHead=0;swimlaneBody=0;top=0;left=0;bottom=0;right=0;dropTarget=0;collapsible=0;recursiveResize=0;expand=0;fontStyle=0;fillColor=#D5E8D4;strokeColor=#36393d;" vertex="1" parent="Wwvcnq5fY5of7Q76l7Qe-1">
          <mxGeometry width="40" height="40" as="geometry" />
        </mxCell>
        <mxCell id="Wwvcnq5fY5of7Q76l7Qe-3" value="$$x_{1}^1$$" style="connectable=0;recursiveResize=0;strokeColor=#36393d;fillColor=#D5E8D4;align=center;whiteSpace=wrap;html=1;fillStyle=solid;" vertex="1" parent="Wwvcnq5fY5of7Q76l7Qe-2">
          <mxGeometry width="40" height="40" as="geometry">
            <mxRectangle width="40" height="40" as="alternateBounds" />
          </mxGeometry>
        </mxCell>
        <mxCell id="Wwvcnq5fY5of7Q76l7Qe-4" value="" style="shape=tableRow;horizontal=0;startSize=0;swimlaneHead=0;swimlaneBody=0;top=0;left=0;bottom=0;right=0;dropTarget=0;collapsible=0;recursiveResize=0;expand=0;fontStyle=0;fillColor=#D5E8D4;strokeColor=#36393d;swimlaneFillColor=none;" vertex="1" parent="Wwvcnq5fY5of7Q76l7Qe-1">
          <mxGeometry y="40" width="40" height="40" as="geometry" />
        </mxCell>
        <mxCell id="Wwvcnq5fY5of7Q76l7Qe-5" value="$$x_{1}^2$$" style="connectable=0;recursiveResize=0;strokeColor=#36393d;fillColor=#D5E8D4;align=center;whiteSpace=wrap;html=1;fillStyle=solid;" vertex="1" parent="Wwvcnq5fY5of7Q76l7Qe-4">
          <mxGeometry width="40" height="40" as="geometry">
            <mxRectangle width="40" height="40" as="alternateBounds" />
          </mxGeometry>
        </mxCell>
        <mxCell id="Wwvcnq5fY5of7Q76l7Qe-6" value="" style="shape=tableRow;horizontal=0;startSize=0;swimlaneHead=0;swimlaneBody=0;top=0;left=0;bottom=0;right=0;dropTarget=0;collapsible=0;recursiveResize=0;expand=0;fontStyle=0;fillColor=#D5E8D4;strokeColor=#36393d;" vertex="1" parent="Wwvcnq5fY5of7Q76l7Qe-1">
          <mxGeometry y="80" width="40" height="40" as="geometry" />
        </mxCell>
        <mxCell id="Wwvcnq5fY5of7Q76l7Qe-7" value="$$\vdots$$" style="connectable=0;recursiveResize=0;strokeColor=#36393d;fillColor=#D5E8D4;align=center;whiteSpace=wrap;html=1;" vertex="1" parent="Wwvcnq5fY5of7Q76l7Qe-6">
          <mxGeometry width="40" height="40" as="geometry">
            <mxRectangle width="40" height="40" as="alternateBounds" />
          </mxGeometry>
        </mxCell>
        <mxCell id="Wwvcnq5fY5of7Q76l7Qe-8" value="" style="shape=tableRow;horizontal=0;startSize=0;swimlaneHead=0;swimlaneBody=0;top=0;left=0;bottom=0;right=0;dropTarget=0;collapsible=0;recursiveResize=0;expand=0;fontStyle=0;fillColor=#D5E8D4;strokeColor=#36393d;" vertex="1" parent="Wwvcnq5fY5of7Q76l7Qe-1">
          <mxGeometry y="120" width="40" height="40" as="geometry" />
        </mxCell>
        <mxCell id="Wwvcnq5fY5of7Q76l7Qe-9" value="$$x_{1}^n$$" style="connectable=0;recursiveResize=0;strokeColor=#36393d;fillColor=#D5E8D4;align=center;whiteSpace=wrap;html=1;" vertex="1" parent="Wwvcnq5fY5of7Q76l7Qe-8">
          <mxGeometry width="40" height="40" as="geometry">
            <mxRectangle width="40" height="40" as="alternateBounds" />
          </mxGeometry>
        </mxCell>
        <mxCell id="Wwvcnq5fY5of7Q76l7Qe-10" value="" style="childLayout=tableLayout;recursiveResize=0;shadow=0;fillColor=#D5E8D4;direction=north;strokeColor=#36393d;" vertex="1" parent="1">
          <mxGeometry x="400" y="240" width="40" height="160" as="geometry" />
        </mxCell>
        <mxCell id="Wwvcnq5fY5of7Q76l7Qe-11" value="" style="shape=tableRow;horizontal=0;startSize=0;swimlaneHead=0;swimlaneBody=0;top=0;left=0;bottom=0;right=0;dropTarget=0;collapsible=0;recursiveResize=0;expand=0;fontStyle=0;fillColor=#D5E8D4;strokeColor=#36393d;" vertex="1" parent="Wwvcnq5fY5of7Q76l7Qe-10">
          <mxGeometry width="40" height="40" as="geometry" />
        </mxCell>
        <mxCell id="Wwvcnq5fY5of7Q76l7Qe-12" value="$$x_{2}^1$$" style="connectable=0;recursiveResize=0;strokeColor=#36393d;fillColor=#D5E8D4;align=center;whiteSpace=wrap;html=1;fillStyle=solid;" vertex="1" parent="Wwvcnq5fY5of7Q76l7Qe-11">
          <mxGeometry width="40" height="40" as="geometry">
            <mxRectangle width="40" height="40" as="alternateBounds" />
          </mxGeometry>
        </mxCell>
        <mxCell id="Wwvcnq5fY5of7Q76l7Qe-13" value="" style="shape=tableRow;horizontal=0;startSize=0;swimlaneHead=0;swimlaneBody=0;top=0;left=0;bottom=0;right=0;dropTarget=0;collapsible=0;recursiveResize=0;expand=0;fontStyle=0;fillColor=#D5E8D4;strokeColor=#36393d;swimlaneFillColor=none;" vertex="1" parent="Wwvcnq5fY5of7Q76l7Qe-10">
          <mxGeometry y="40" width="40" height="40" as="geometry" />
        </mxCell>
        <mxCell id="Wwvcnq5fY5of7Q76l7Qe-14" value="$$x_{2}^2$$" style="connectable=0;recursiveResize=0;strokeColor=#36393d;fillColor=#D5E8D4;align=center;whiteSpace=wrap;html=1;fillStyle=solid;" vertex="1" parent="Wwvcnq5fY5of7Q76l7Qe-13">
          <mxGeometry width="40" height="40" as="geometry">
            <mxRectangle width="40" height="40" as="alternateBounds" />
          </mxGeometry>
        </mxCell>
        <mxCell id="Wwvcnq5fY5of7Q76l7Qe-15" value="" style="shape=tableRow;horizontal=0;startSize=0;swimlaneHead=0;swimlaneBody=0;top=0;left=0;bottom=0;right=0;dropTarget=0;collapsible=0;recursiveResize=0;expand=0;fontStyle=0;fillColor=#D5E8D4;strokeColor=#36393d;" vertex="1" parent="Wwvcnq5fY5of7Q76l7Qe-10">
          <mxGeometry y="80" width="40" height="40" as="geometry" />
        </mxCell>
        <mxCell id="Wwvcnq5fY5of7Q76l7Qe-16" value="$$\vdots$$" style="connectable=0;recursiveResize=0;strokeColor=#36393d;fillColor=#D5E8D4;align=center;whiteSpace=wrap;html=1;" vertex="1" parent="Wwvcnq5fY5of7Q76l7Qe-15">
          <mxGeometry width="40" height="40" as="geometry">
            <mxRectangle width="40" height="40" as="alternateBounds" />
          </mxGeometry>
        </mxCell>
        <mxCell id="Wwvcnq5fY5of7Q76l7Qe-17" value="" style="shape=tableRow;horizontal=0;startSize=0;swimlaneHead=0;swimlaneBody=0;top=0;left=0;bottom=0;right=0;dropTarget=0;collapsible=0;recursiveResize=0;expand=0;fontStyle=0;fillColor=#D5E8D4;strokeColor=#36393d;" vertex="1" parent="Wwvcnq5fY5of7Q76l7Qe-10">
          <mxGeometry y="120" width="40" height="40" as="geometry" />
        </mxCell>
        <mxCell id="Wwvcnq5fY5of7Q76l7Qe-18" value="$$x_{2}^n$$" style="connectable=0;recursiveResize=0;strokeColor=#36393d;fillColor=#D5E8D4;align=center;whiteSpace=wrap;html=1;" vertex="1" parent="Wwvcnq5fY5of7Q76l7Qe-17">
          <mxGeometry width="40" height="40" as="geometry">
            <mxRectangle width="40" height="40" as="alternateBounds" />
          </mxGeometry>
        </mxCell>
        <mxCell id="Wwvcnq5fY5of7Q76l7Qe-19" value="" style="childLayout=tableLayout;recursiveResize=0;shadow=0;fillColor=#D5E8D4;direction=north;strokeColor=#36393d;" vertex="1" parent="1">
          <mxGeometry x="480" y="240" width="40" height="160" as="geometry" />
        </mxCell>
        <mxCell id="Wwvcnq5fY5of7Q76l7Qe-20" value="" style="shape=tableRow;horizontal=0;startSize=0;swimlaneHead=0;swimlaneBody=0;top=0;left=0;bottom=0;right=0;dropTarget=0;collapsible=0;recursiveResize=0;expand=0;fontStyle=0;fillColor=#D5E8D4;strokeColor=#36393d;" vertex="1" parent="Wwvcnq5fY5of7Q76l7Qe-19">
          <mxGeometry width="40" height="40" as="geometry" />
        </mxCell>
        <mxCell id="Wwvcnq5fY5of7Q76l7Qe-21" value="$$x_{k}^1$$" style="connectable=0;recursiveResize=0;strokeColor=#36393d;fillColor=#D5E8D4;align=center;whiteSpace=wrap;html=1;fillStyle=solid;" vertex="1" parent="Wwvcnq5fY5of7Q76l7Qe-20">
          <mxGeometry width="40" height="40" as="geometry">
            <mxRectangle width="40" height="40" as="alternateBounds" />
          </mxGeometry>
        </mxCell>
        <mxCell id="Wwvcnq5fY5of7Q76l7Qe-22" value="" style="shape=tableRow;horizontal=0;startSize=0;swimlaneHead=0;swimlaneBody=0;top=0;left=0;bottom=0;right=0;dropTarget=0;collapsible=0;recursiveResize=0;expand=0;fontStyle=0;fillColor=#D5E8D4;strokeColor=#36393d;swimlaneFillColor=none;" vertex="1" parent="Wwvcnq5fY5of7Q76l7Qe-19">
          <mxGeometry y="40" width="40" height="40" as="geometry" />
        </mxCell>
        <mxCell id="Wwvcnq5fY5of7Q76l7Qe-23" value="$$x_{k}^2$$" style="connectable=0;recursiveResize=0;strokeColor=#36393d;fillColor=#D5E8D4;align=center;whiteSpace=wrap;html=1;fillStyle=solid;" vertex="1" parent="Wwvcnq5fY5of7Q76l7Qe-22">
          <mxGeometry width="40" height="40" as="geometry">
            <mxRectangle width="40" height="40" as="alternateBounds" />
          </mxGeometry>
        </mxCell>
        <mxCell id="Wwvcnq5fY5of7Q76l7Qe-24" value="" style="shape=tableRow;horizontal=0;startSize=0;swimlaneHead=0;swimlaneBody=0;top=0;left=0;bottom=0;right=0;dropTarget=0;collapsible=0;recursiveResize=0;expand=0;fontStyle=0;fillColor=#D5E8D4;strokeColor=#36393d;" vertex="1" parent="Wwvcnq5fY5of7Q76l7Qe-19">
          <mxGeometry y="80" width="40" height="40" as="geometry" />
        </mxCell>
        <mxCell id="Wwvcnq5fY5of7Q76l7Qe-25" value="$$\vdots$$" style="connectable=0;recursiveResize=0;strokeColor=#36393d;fillColor=#D5E8D4;align=center;whiteSpace=wrap;html=1;" vertex="1" parent="Wwvcnq5fY5of7Q76l7Qe-24">
          <mxGeometry width="40" height="40" as="geometry">
            <mxRectangle width="40" height="40" as="alternateBounds" />
          </mxGeometry>
        </mxCell>
        <mxCell id="Wwvcnq5fY5of7Q76l7Qe-26" value="" style="shape=tableRow;horizontal=0;startSize=0;swimlaneHead=0;swimlaneBody=0;top=0;left=0;bottom=0;right=0;dropTarget=0;collapsible=0;recursiveResize=0;expand=0;fontStyle=0;fillColor=#D5E8D4;strokeColor=#36393d;" vertex="1" parent="Wwvcnq5fY5of7Q76l7Qe-19">
          <mxGeometry y="120" width="40" height="40" as="geometry" />
        </mxCell>
        <mxCell id="Wwvcnq5fY5of7Q76l7Qe-27" value="$$x_{k}^n$$" style="connectable=0;recursiveResize=0;strokeColor=#36393d;fillColor=#D5E8D4;align=center;whiteSpace=wrap;html=1;" vertex="1" parent="Wwvcnq5fY5of7Q76l7Qe-26">
          <mxGeometry width="40" height="40" as="geometry">
            <mxRectangle width="40" height="40" as="alternateBounds" />
          </mxGeometry>
        </mxCell>
        <mxCell id="Wwvcnq5fY5of7Q76l7Qe-28" value="$$\cdots$$" style="text;html=1;align=center;verticalAlign=middle;resizable=0;points=[];autosize=1;strokeColor=none;fillColor=none;" vertex="1" parent="1">
          <mxGeometry x="420" y="290" width="80" height="30" as="geometry" />
        </mxCell>
        <mxCell id="Wwvcnq5fY5of7Q76l7Qe-29" value="" style="childLayout=tableLayout;recursiveResize=0;shadow=0;fillColor=#FFF2CC;direction=north;strokeColor=#36393d;" vertex="1" parent="1">
          <mxGeometry x="90" y="240" width="160" height="40" as="geometry" />
        </mxCell>
        <mxCell id="Wwvcnq5fY5of7Q76l7Qe-30" value="" style="shape=tableRow;horizontal=0;startSize=0;swimlaneHead=0;swimlaneBody=0;top=0;left=0;bottom=0;right=0;dropTarget=0;collapsible=0;recursiveResize=0;expand=0;fontStyle=0;fillColor=#FFF2CC;strokeColor=#36393d;" vertex="1" parent="Wwvcnq5fY5of7Q76l7Qe-29">
          <mxGeometry width="160" height="40" as="geometry" />
        </mxCell>
        <mxCell id="Wwvcnq5fY5of7Q76l7Qe-46" value="$$x_{1}^1$$" style="connectable=0;recursiveResize=0;strokeColor=#36393d;fillColor=#FFF2CC;align=center;whiteSpace=wrap;html=1;fillStyle=solid;" vertex="1" parent="Wwvcnq5fY5of7Q76l7Qe-30">
          <mxGeometry width="40" height="40" as="geometry">
            <mxRectangle width="40" height="40" as="alternateBounds" />
          </mxGeometry>
        </mxCell>
        <mxCell id="Wwvcnq5fY5of7Q76l7Qe-42" value="$$x_{2}^1$$" style="connectable=0;recursiveResize=0;strokeColor=#36393d;fillColor=#FFF2CC;align=center;whiteSpace=wrap;html=1;fillStyle=solid;" vertex="1" parent="Wwvcnq5fY5of7Q76l7Qe-30">
          <mxGeometry x="40" width="40" height="40" as="geometry">
            <mxRectangle width="40" height="40" as="alternateBounds" />
          </mxGeometry>
        </mxCell>
        <mxCell id="Wwvcnq5fY5of7Q76l7Qe-38" value="$$\cdots$$" style="connectable=0;recursiveResize=0;strokeColor=#36393d;fillColor=#FFF2CC;align=center;whiteSpace=wrap;html=1;fillStyle=solid;" vertex="1" parent="Wwvcnq5fY5of7Q76l7Qe-30">
          <mxGeometry x="80" width="40" height="40" as="geometry">
            <mxRectangle width="40" height="40" as="alternateBounds" />
          </mxGeometry>
        </mxCell>
        <mxCell id="Wwvcnq5fY5of7Q76l7Qe-31" value="$$x_{k}^1$$" style="connectable=0;recursiveResize=0;strokeColor=#36393d;fillColor=#FFF2CC;align=center;whiteSpace=wrap;html=1;fillStyle=solid;" vertex="1" parent="Wwvcnq5fY5of7Q76l7Qe-30">
          <mxGeometry x="120" width="40" height="40" as="geometry">
            <mxRectangle width="40" height="40" as="alternateBounds" />
          </mxGeometry>
        </mxCell>
        <mxCell id="Wwvcnq5fY5of7Q76l7Qe-50" value="k 个 n 维向量" style="text;html=1;align=center;verticalAlign=middle;resizable=0;points=[];autosize=1;strokeColor=none;fillColor=none;" vertex="1" parent="1">
          <mxGeometry x="390" y="430" width="90" height="30" as="geometry" />
        </mxCell>
        <mxCell id="Wwvcnq5fY5of7Q76l7Qe-51" value="" style="childLayout=tableLayout;recursiveResize=0;shadow=0;fillColor=#FFF2CC;direction=north;strokeColor=#36393d;" vertex="1" parent="1">
          <mxGeometry x="90" y="290" width="160" height="40" as="geometry" />
        </mxCell>
        <mxCell id="Wwvcnq5fY5of7Q76l7Qe-52" value="" style="shape=tableRow;horizontal=0;startSize=0;swimlaneHead=0;swimlaneBody=0;top=0;left=0;bottom=0;right=0;dropTarget=0;collapsible=0;recursiveResize=0;expand=0;fontStyle=0;fillColor=#FFF2CC;strokeColor=#36393d;" vertex="1" parent="Wwvcnq5fY5of7Q76l7Qe-51">
          <mxGeometry width="160" height="40" as="geometry" />
        </mxCell>
        <mxCell id="Wwvcnq5fY5of7Q76l7Qe-53" value="$$x_{1}^2$$" style="connectable=0;recursiveResize=0;strokeColor=#36393d;fillColor=#FFF2CC;align=center;whiteSpace=wrap;html=1;fillStyle=solid;" vertex="1" parent="Wwvcnq5fY5of7Q76l7Qe-52">
          <mxGeometry width="40" height="40" as="geometry">
            <mxRectangle width="40" height="40" as="alternateBounds" />
          </mxGeometry>
        </mxCell>
        <mxCell id="Wwvcnq5fY5of7Q76l7Qe-54" value="$$x_{2}^2$$" style="connectable=0;recursiveResize=0;strokeColor=#36393d;fillColor=#FFF2CC;align=center;whiteSpace=wrap;html=1;fillStyle=solid;" vertex="1" parent="Wwvcnq5fY5of7Q76l7Qe-52">
          <mxGeometry x="40" width="40" height="40" as="geometry">
            <mxRectangle width="40" height="40" as="alternateBounds" />
          </mxGeometry>
        </mxCell>
        <mxCell id="Wwvcnq5fY5of7Q76l7Qe-55" value="$$\cdots$$" style="connectable=0;recursiveResize=0;strokeColor=#36393d;fillColor=#FFF2CC;align=center;whiteSpace=wrap;html=1;fillStyle=solid;" vertex="1" parent="Wwvcnq5fY5of7Q76l7Qe-52">
          <mxGeometry x="80" width="40" height="40" as="geometry">
            <mxRectangle width="40" height="40" as="alternateBounds" />
          </mxGeometry>
        </mxCell>
        <mxCell id="Wwvcnq5fY5of7Q76l7Qe-56" value="$$x_{k}^2$$" style="connectable=0;recursiveResize=0;strokeColor=#36393d;fillColor=#FFF2CC;align=center;whiteSpace=wrap;html=1;fillStyle=solid;" vertex="1" parent="Wwvcnq5fY5of7Q76l7Qe-52">
          <mxGeometry x="120" width="40" height="40" as="geometry">
            <mxRectangle width="40" height="40" as="alternateBounds" />
          </mxGeometry>
        </mxCell>
        <mxCell id="Wwvcnq5fY5of7Q76l7Qe-57" value="" style="childLayout=tableLayout;recursiveResize=0;shadow=0;fillColor=#FFF2CC;direction=north;strokeColor=#36393d;" vertex="1" parent="1">
          <mxGeometry x="90" y="360" width="160" height="40" as="geometry" />
        </mxCell>
        <mxCell id="Wwvcnq5fY5of7Q76l7Qe-58" value="" style="shape=tableRow;horizontal=0;startSize=0;swimlaneHead=0;swimlaneBody=0;top=0;left=0;bottom=0;right=0;dropTarget=0;collapsible=0;recursiveResize=0;expand=0;fontStyle=0;fillColor=#FFF2CC;strokeColor=#36393d;" vertex="1" parent="Wwvcnq5fY5of7Q76l7Qe-57">
          <mxGeometry width="160" height="40" as="geometry" />
        </mxCell>
        <mxCell id="Wwvcnq5fY5of7Q76l7Qe-59" value="$$x_{1}^n$$" style="connectable=0;recursiveResize=0;strokeColor=#36393d;fillColor=#FFF2CC;align=center;whiteSpace=wrap;html=1;fillStyle=solid;" vertex="1" parent="Wwvcnq5fY5of7Q76l7Qe-58">
          <mxGeometry width="40" height="40" as="geometry">
            <mxRectangle width="40" height="40" as="alternateBounds" />
          </mxGeometry>
        </mxCell>
        <mxCell id="Wwvcnq5fY5of7Q76l7Qe-60" value="$$x_{2}^n$$" style="connectable=0;recursiveResize=0;strokeColor=#36393d;fillColor=#FFF2CC;align=center;whiteSpace=wrap;html=1;fillStyle=solid;" vertex="1" parent="Wwvcnq5fY5of7Q76l7Qe-58">
          <mxGeometry x="40" width="40" height="40" as="geometry">
            <mxRectangle width="40" height="40" as="alternateBounds" />
          </mxGeometry>
        </mxCell>
        <mxCell id="Wwvcnq5fY5of7Q76l7Qe-61" value="$$\cdots$$" style="connectable=0;recursiveResize=0;strokeColor=#36393d;fillColor=#FFF2CC;align=center;whiteSpace=wrap;html=1;fillStyle=solid;" vertex="1" parent="Wwvcnq5fY5of7Q76l7Qe-58">
          <mxGeometry x="80" width="40" height="40" as="geometry">
            <mxRectangle width="40" height="40" as="alternateBounds" />
          </mxGeometry>
        </mxCell>
        <mxCell id="Wwvcnq5fY5of7Q76l7Qe-62" value="$$x_{k}^n$$" style="connectable=0;recursiveResize=0;strokeColor=#36393d;fillColor=#FFF2CC;align=center;whiteSpace=wrap;html=1;fillStyle=solid;" vertex="1" parent="Wwvcnq5fY5of7Q76l7Qe-58">
          <mxGeometry x="120" width="40" height="40" as="geometry">
            <mxRectangle width="40" height="40" as="alternateBounds" />
          </mxGeometry>
        </mxCell>
        <mxCell id="Wwvcnq5fY5of7Q76l7Qe-63" value="$$\vdots$$" style="text;html=1;align=center;verticalAlign=middle;resizable=0;points=[];autosize=1;strokeColor=none;fillColor=none;" vertex="1" parent="1">
          <mxGeometry x="110" y="330" width="80" height="30" as="geometry" />
        </mxCell>
        <mxCell id="Wwvcnq5fY5of7Q76l7Qe-64" value="n 个 k 维向量" style="text;html=1;align=center;verticalAlign=middle;resizable=0;points=[];autosize=1;strokeColor=none;fillColor=none;" vertex="1" parent="1">
          <mxGeometry x="-30" y="305" width="90" height="30" as="geometry" />
        </mxCell>
        <mxCell id="Wwvcnq5fY5of7Q76l7Qe-65" value="" style="shape=curlyBracket;whiteSpace=wrap;html=1;rounded=1;labelPosition=left;verticalLabelPosition=middle;align=right;verticalAlign=middle;" vertex="1" parent="1">
          <mxGeometry x="60" y="240" width="20" height="160" as="geometry" />
        </mxCell>
        <mxCell id="Wwvcnq5fY5of7Q76l7Qe-66" value="" style="shape=curlyBracket;whiteSpace=wrap;html=1;rounded=1;labelPosition=left;verticalLabelPosition=middle;align=right;verticalAlign=middle;direction=north;" vertex="1" parent="1">
          <mxGeometry x="350" y="410" width="170" height="20" as="geometry" />
        </mxCell>
        <mxCell id="Wwvcnq5fY5of7Q76l7Qe-67" value="" style="shape=flexArrow;endArrow=classic;html=1;rounded=0;" edge="1" parent="1">
          <mxGeometry width="50" height="50" relative="1" as="geometry">
            <mxPoint x="260" y="320" as="sourcePoint" />
            <mxPoint x="340" y="320" as="targetPoint" />
          </mxGeometry>
        </mxCell>
      </root>
    </mxGraphModel>
  </diagram>
</mxfile>
